<svg xmlns="http://www.w3.org/2000/svg" width="7.2in" height="4in" viewBox="0 0 518.40 288.00">
<style>text{font-family:Helvetica,Arial,sans-serif;fill:#111827} .title{font-size:8pt;font-weight:700} .subtitle{font-size:8pt;fill:#4b5563} .stage{font-size:8pt;font-weight:700;fill:#334155} .label{font-size:8pt} .count{font-size:8pt;fill:#475569}</style>
<rect width="100%" height="100%" fill="white"/>
<text x="16" y="16" class="title">Stage-wise pipeline gene flow</text>
<text x="16" y="31" class="subtitle">Synthetic example; ribbons summarize stage counts.</text>
<text x="32.50" y="58" text-anchor="middle" class="stage">Input</text>
<text x="89.17" y="58" text-anchor="middle" class="stage">Dedup</text>
<text x="145.85" y="58" text-anchor="middle" class="stage">Transcript</text>
<text x="202.52" y="58" text-anchor="middle" class="stage">Selected</text>
<text x="259.20" y="58" text-anchor="middle" class="stage">Frame</text>
<text x="315.88" y="58" text-anchor="middle" class="stage">Framed</text>
<text x="372.55" y="58" text-anchor="middle" class="stage">Padding</text>
<text x="429.22" y="58" text-anchor="middle" class="stage">Padded</text>
<text x="485.90" y="58" text-anchor="middle" class="stage">Final</text>
<path d="M 37.00 96.00 C 53.69 96.00, 67.99 87.00, 84.67 87.00 L 84.67 229.50 C 67.99 229.50, 53.69 238.50, 37.00 238.50 Z" fill="#64748b" fill-opacity="0.55" stroke="none"/>
<path d="M 37.00 238.50 C 53.69 238.50, 67.99 247.50, 84.67 247.50 L 84.67 255.00 C 67.99 255.00, 53.69 246.00, 37.00 246.00 Z" fill="#dc2626" fill-opacity="0.55" stroke="none"/>
<path d="M 93.67 87.00 C 110.36 87.00, 124.66 90.75, 141.35 90.75 L 141.35 203.25 C 124.66 203.25, 110.36 199.50, 93.67 199.50 Z" fill="#94a3b8" fill-opacity="0.55" stroke="none"/>
<path d="M 93.67 199.50 C 110.36 199.50, 124.66 221.25, 141.35 221.25 L 141.35 251.25 C 124.66 251.25, 110.36 229.50, 93.67 229.50 Z" fill="#2563eb" fill-opacity="0.55" stroke="none"/>
<path d="M 150.35 90.75 C 167.04 90.75, 181.34 99.75, 198.02 99.75 L 198.02 212.25 C 181.34 212.25, 167.04 203.25, 150.35 203.25 Z" fill="#94a3b8" fill-opacity="0.55" stroke="none"/>
<path d="M 150.35 221.25 C 167.04 221.25, 181.34 212.25, 198.02 212.25 L 198.02 242.25 C 181.34 242.25, 167.04 251.25, 150.35 251.25 Z" fill="#2563eb" fill-opacity="0.55" stroke="none"/>
<path d="M 207.02 99.75 C 223.71 99.75, 238.01 89.50, 254.70 89.50 L 254.70 227.50 C 238.01 227.50, 223.71 237.75, 207.02 237.75 Z" fill="#cbd5e1" fill-opacity="0.55" stroke="none"/>
<path d="M 207.02 237.75 C 223.71 237.75, 238.01 245.50, 254.70 245.50 L 254.70 250.00 C 238.01 250.00, 223.71 242.25, 207.02 242.25 Z" fill="#d97706" fill-opacity="0.55" stroke="none"/>
<path d="M 263.70 89.50 C 280.39 89.50, 294.69 98.75, 311.38 98.75 L 311.38 236.75 C 294.69 236.75, 280.39 227.50, 263.70 227.50 Z" fill="#cbd5e1" fill-opacity="0.55" stroke="none"/>
<path d="M 263.70 245.50 C 280.39 245.50, 294.69 236.75, 311.38 236.75 L 311.38 241.25 C 294.69 241.25, 280.39 250.00, 263.70 250.00 Z" fill="#d97706" fill-opacity="0.55" stroke="none"/>
<path d="M 320.38 98.75 C 337.06 98.75, 351.36 77.75, 368.05 77.75 L 368.05 214.25 C 351.36 214.25, 337.06 235.25, 320.38 235.25 Z" fill="#cbd5e1" fill-opacity="0.55" stroke="none"/>
<path d="M 320.38 235.25 C 337.06 235.25, 351.36 232.25, 368.05 232.25 L 368.05 236.75 C 351.36 236.75, 337.06 239.75, 320.38 239.75 Z" fill="#0891b2" fill-opacity="0.55" stroke="none"/>
<path d="M 320.38 239.75 C 337.06 239.75, 351.36 257.25, 368.05 257.25 L 368.05 260.75 C 351.36 260.75, 337.06 243.25, 320.38 243.25 Z" fill="#be123c" fill-opacity="0.55" stroke="none"/>
<path d="M 377.05 77.75 C 393.74 77.75, 408.04 98.75, 424.72 98.75 L 424.72 235.25 C 408.04 235.25, 393.74 214.25, 377.05 214.25 Z" fill="#cbd5e1" fill-opacity="0.55" stroke="none"/>
<path d="M 377.05 232.25 C 393.74 232.25, 408.04 235.25, 424.72 235.25 L 424.72 239.75 C 408.04 239.75, 393.74 236.75, 377.05 236.75 Z" fill="#0891b2" fill-opacity="0.55" stroke="none"/>
<path d="M 377.05 257.25 C 393.74 257.25, 408.04 239.75, 424.72 239.75 L 424.72 243.25 C 408.04 243.25, 393.74 260.75, 377.05 260.75 Z" fill="#be123c" fill-opacity="0.55" stroke="none"/>
<path d="M 433.72 98.75 C 450.41 98.75, 464.71 88.00, 481.40 88.00 L 481.40 229.00 C 464.71 229.00, 450.41 239.75, 433.72 239.75 Z" fill="#059669" fill-opacity="0.55" stroke="none"/>
<path d="M 433.72 239.75 C 450.41 239.75, 464.71 247.00, 481.40 247.00 L 481.40 250.50 C 464.71 250.50, 450.41 243.25, 433.72 243.25 Z" fill="#b45309" fill-opacity="0.55" stroke="none"/>
<rect x="28.00" y="96.00" width="9.00" height="150.00" rx="4" fill="#475569" stroke="#0f172a" stroke-width="0.8"/>
<rect x="84.67" y="87.00" width="9.00" height="142.50" rx="4" fill="#64748b" stroke="#0f172a" stroke-width="0.8"/>
<rect x="84.67" y="247.50" width="9.00" height="7.50" rx="4" fill="#dc2626" stroke="#0f172a" stroke-width="0.8"/>
<rect x="141.35" y="90.75" width="9.00" height="112.50" rx="4" fill="#94a3b8" stroke="#0f172a" stroke-width="0.8"/>
<rect x="141.35" y="221.25" width="9.00" height="30.00" rx="4" fill="#2563eb" stroke="#0f172a" stroke-width="0.8"/>
<rect x="198.02" y="99.75" width="9.00" height="142.50" rx="4" fill="#475569" stroke="#0f172a" stroke-width="0.8"/>
<rect x="254.70" y="89.50" width="9.00" height="138.00" rx="4" fill="#cbd5e1" stroke="#0f172a" stroke-width="0.8"/>
<rect x="254.70" y="245.50" width="9.00" height="7.00" rx="4" fill="#d97706" stroke="#0f172a" stroke-width="0.8"/>
<rect x="311.38" y="98.75" width="9.00" height="144.50" rx="4" fill="#475569" stroke="#0f172a" stroke-width="0.8"/>
<rect x="368.05" y="77.75" width="9.00" height="136.50" rx="4" fill="#cbd5e1" stroke="#0f172a" stroke-width="0.8"/>
<rect x="368.05" y="232.25" width="9.00" height="7.00" rx="4" fill="#0891b2" stroke="#0f172a" stroke-width="0.8"/>
<rect x="368.05" y="257.25" width="9.00" height="7.00" rx="4" fill="#be123c" stroke="#0f172a" stroke-width="0.8"/>
<rect x="424.72" y="98.75" width="9.00" height="144.50" rx="4" fill="#475569" stroke="#0f172a" stroke-width="0.8"/>
<rect x="481.40" y="88.00" width="9.00" height="141.00" rx="4" fill="#059669" stroke="#0f172a" stroke-width="0.8"/>
<rect x="481.40" y="247.00" width="9.00" height="7.00" rx="4" fill="#b45309" stroke="#0f172a" stroke-width="0.8"/>
<text x="41.00" y="167.00" text-anchor="start" class="label">Input</text>
<text x="41.00" y="179.00" text-anchor="start" class="count">100 genes</text>
<text x="97.67" y="154.25" text-anchor="start" class="label">Kept</text>
<text x="97.67" y="166.25" text-anchor="start" class="count">95 genes</text>
<text x="97.67" y="249.00" text-anchor="start" class="label">Removed</text>
<text x="97.67" y="261.00" text-anchor="start" class="count">5 genes</text>
<text x="154.35" y="143.00" text-anchor="start" class="label">Unchanged</text>
<text x="154.35" y="155.00" text-anchor="start" class="count">75 genes</text>
<text x="154.35" y="232.25" text-anchor="start" class="label">Pruned</text>
<text x="154.35" y="244.25" text-anchor="start" class="count">20 genes</text>
<text x="267.70" y="154.50" text-anchor="start" class="label">Frame OK</text>
<text x="267.70" y="166.50" text-anchor="start" class="count">92 genes</text>
<text x="267.70" y="246.50" text-anchor="start" class="label">Frame fixed</text>
<text x="267.70" y="258.50" text-anchor="start" class="count">3 genes</text>
<text x="381.05" y="142.00" text-anchor="start" class="label">No padding</text>
<text x="381.05" y="154.00" text-anchor="start" class="count">91 genes</text>
<text x="381.05" y="233.25" text-anchor="start" class="label">Padded</text>
<text x="381.05" y="245.25" text-anchor="start" class="count">3 genes</text>
<text x="381.05" y="258.25" text-anchor="start" class="label">Stops</text>
<text x="381.05" y="270.25" text-anchor="start" class="count">1 gene</text>
<text x="477.40" y="154.50" text-anchor="end" class="label">Final CDS</text>
<text x="477.40" y="166.50" text-anchor="end" class="count">94 genes</text>
<text x="477.40" y="248.00" text-anchor="end" class="label">Final misc</text>
<text x="477.40" y="260.00" text-anchor="end" class="count">1 gene</text>
</svg>
