<svg xmlns="http://www.w3.org/2000/svg" width="980" height="300" viewBox="0 0 980 300">
<style>text{font-family:Helvetica,Arial,sans-serif;fill:#111827} .muted{fill:#4b5563;font-size:12px} .label{font-size:14px;font-weight:700} .title{font-size:20px;font-weight:700} .tick{font-size:11px;fill:#6b7280}</style>
<rect width="100%" height="100%" fill="white"/>
<text x="30" y="36" class="title">BUSCO comparison: cds</text>
<text x="30" y="58" class="muted">mode=transcriptome | datasets=input: eudicotyledons_odb12 | processed: eudicotyledons_odb12</text>
<line x1="210.0" y1="92.0" x2="210.0" y2="250.0" stroke="#e5e7eb"/>
<text x="210.0" y="86.0" text-anchor="middle" class="tick">0%</text>
<line x1="380.0" y1="92.0" x2="380.0" y2="250.0" stroke="#e5e7eb"/>
<text x="380.0" y="86.0" text-anchor="middle" class="tick">25%</text>
<line x1="550.0" y1="92.0" x2="550.0" y2="250.0" stroke="#e5e7eb"/>
<text x="550.0" y="86.0" text-anchor="middle" class="tick">50%</text>
<line x1="720.0" y1="92.0" x2="720.0" y2="250.0" stroke="#e5e7eb"/>
<text x="720.0" y="86.0" text-anchor="middle" class="tick">75%</text>
<line x1="890.0" y1="92.0" x2="890.0" y2="250.0" stroke="#e5e7eb"/>
<text x="890.0" y="86.0" text-anchor="middle" class="tick">100%</text>
<rect x="210.0" y="80.0" width="14" height="14" rx="2" fill="#2ca25f"/>
<text x="232.0" y="92.0" class="muted">Single-copy</text>
<rect x="370.0" y="80.0" width="14" height="14" rx="2" fill="#3b82f6"/>
<text x="392.0" y="92.0" class="muted">Duplicated</text>
<rect x="530.0" y="80.0" width="14" height="14" rx="2" fill="#f59e0b"/>
<text x="552.0" y="92.0" class="muted">Fragmented</text>
<rect x="690.0" y="80.0" width="14" height="14" rx="2" fill="#ef4444"/>
<text x="712.0" y="92.0" class="muted">Missing</text>
<text x="30" y="128.0" class="label">input</text>
<rect x="210.00" y="110.00" width="475.32" height="28.00" fill="#2ca25f"/>
<rect x="685.32" y="110.00" width="172.72" height="28.00" fill="#3b82f6"/>
<rect x="858.04" y="110.00" width="11.56" height="28.00" fill="#f59e0b"/>
<rect x="869.60" y="110.00" width="20.40" height="28.00" fill="#ef4444"/>
<rect x="210.0" y="110.0" width="680.0" height="28.0" fill="none" stroke="#111827" stroke-width="1"/>
<text x="210.0" y="158.0" class="muted">C:95.3% [S:69.9%, D:25.4%], F:1.7%, M:3.0%, n:2805</text>
<text x="30" y="198.0" class="label">processed</text>
<rect x="210.00" y="180.00" width="607.92" height="28.00" fill="#2ca25f"/>
<rect x="817.92" y="180.00" width="39.44" height="28.00" fill="#3b82f6"/>
<rect x="857.36" y="180.00" width="12.24" height="28.00" fill="#f59e0b"/>
<rect x="869.60" y="180.00" width="20.40" height="28.00" fill="#ef4444"/>
<rect x="210.0" y="180.0" width="680.0" height="28.0" fill="none" stroke="#111827" stroke-width="1"/>
<text x="210.0" y="228.0" class="muted">C:95.2% [S:89.4%, D:5.8%], F:1.8%, M:3.0%, n:2805</text>
</svg>
